<svg width="13" height="13" viewBox="0 0 13 13" fill="none" xmlns="http://www.w3.org/2000/svg">
<g clip-path="url(#clip0_5_603)">
<path d="M6.5 13C2.90977 13 0 10.0902 0 6.5C0 2.90977 2.90977 0 6.5 0C10.0902 0 13 2.90977 13 6.5C13 10.0902 10.0902 13 6.5 13ZM5.89062 6.5C5.89062 6.70312 5.99219 6.89355 6.1623 6.98496L8.5998 8.60996C8.8791 8.81816 9.25742 8.74199 9.42246 8.4627C9.63066 8.1834 9.55449 7.80508 9.2752 7.61719L7.10938 6.175V3.04688C7.10938 2.70918 6.8377 2.4375 6.47715 2.4375C6.1623 2.4375 5.86777 2.70918 5.86777 3.04688L5.89062 6.5Z" fill="black"/>
</g>
<defs>
<clipPath id="clip0_5_603">
<rect width="13" height="13" fill="white"/>
</clipPath>
</defs>
</svg>
