<svg width="19" height="19" viewBox="0 0 19 19" fill="none" xmlns="http://www.w3.org/2000/svg">
<path d="M14.5788 4.76678C14.3262 4.52875 13.9894 4.40077 13.6424 4.411C13.2954 4.42124 12.9667 4.56884 12.7286 4.82135C12.4905 5.07385 12.3624 5.41057 12.3727 5.75743C12.3829 6.10429 12.5306 6.43288 12.7832 6.67091L14.3964 8.19205H6.74726C6.4054 8.19983 6.08016 8.34105 5.84114 8.58549C5.60211 8.82993 5.46828 9.15818 5.46828 9.5C5.46828 9.84182 5.60211 10.1701 5.84114 10.4145C6.08016 10.659 6.4054 10.8002 6.74726 10.808H14.3964L12.7832 12.3318C12.5308 12.57 12.3833 12.8987 12.3734 13.2456C12.3634 13.5924 12.4916 13.929 12.7299 14.1814C12.9682 14.4337 13.2971 14.5811 13.644 14.591C13.991 14.601 14.3278 14.4728 14.5802 14.2346L18.5912 10.4494C18.7204 10.3269 18.8232 10.1795 18.8935 10.016C18.9638 9.85259 19 9.67655 19 9.49864C19 9.32074 18.9638 9.14469 18.8935 8.98124C18.8232 8.81779 18.7204 8.67036 18.5912 8.54793L14.5788 4.76678Z" fill="black"/>
<path d="M8.52596 16.3848H2.61753V2.61522H8.52596C8.87289 2.61522 9.2056 2.47745 9.45092 2.23223C9.69623 1.98701 9.83405 1.65441 9.83405 1.30761C9.83405 0.96081 9.69623 0.628215 9.45092 0.38299C9.2056 0.137766 8.87289 0 8.52596 0H1.30877C0.961769 0.000358893 0.629088 0.138311 0.383725 0.383585C0.138362 0.628859 0.000359023 0.961419 0 1.30829V17.6924C0.000538446 18.0391 0.13862 18.3715 0.383964 18.6167C0.629308 18.8618 0.961886 18.9996 1.30877 19H8.52596C8.87289 19 9.2056 18.8622 9.45092 18.617C9.69623 18.3718 9.83405 18.0392 9.83405 17.6924C9.83405 17.3456 9.69623 17.013 9.45092 16.7678C9.2056 16.5225 8.87289 16.3848 8.52596 16.3848Z" fill="black"/>
</svg>
