<svg width="57" height="52" viewBox="0 0 57 52" fill="none" xmlns="http://www.w3.org/2000/svg">
<path d="M11.125 21.0001H24.705C25.7239 20.9921 26.7044 21.3888 27.4309 22.1032C28.1575 22.8176 28.5708 23.7912 28.58 24.8101V37.1851C28.5761 37.69 28.4728 38.1892 28.2759 38.6542C28.079 39.1192 27.7925 39.5409 27.4327 39.8951C27.0728 40.2494 26.6468 40.5293 26.1788 40.7189C25.7107 40.9085 25.21 41.004 24.705 41.0001H11.125C10.1061 41.008 9.12571 40.6113 8.39914 39.8969C7.67257 39.1825 7.25927 38.209 7.25003 37.1901L7.25003 24.8151C7.25395 24.3101 7.3573 23.8109 7.55416 23.3459C7.75103 22.8809 8.03755 22.4592 8.39738 22.105C8.75721 21.7507 9.1833 21.4708 9.65131 21.2812C10.1193 21.0916 10.6201 20.9961 11.125 21.0001Z" stroke="black" stroke-width="2"/>
<path d="M32.4587 21.0001H46.0387C47.0576 20.9921 48.0381 21.3888 48.7646 22.1032C49.4912 22.8176 49.9045 23.7912 49.9137 24.8101V37.1851C49.9098 37.69 49.8065 38.1892 49.6096 38.6542C49.4127 39.1192 49.1262 39.5409 48.7664 39.8951C48.4066 40.2494 47.9805 40.5293 47.5125 40.7189C47.0444 40.9085 46.5437 41.004 46.0387 41.0001H32.4587C31.4398 41.008 30.4594 40.6113 29.7328 39.8969C29.0063 39.1825 28.593 38.209 28.5837 37.1901V24.8151C28.5877 24.3101 28.691 23.8109 28.8879 23.3459C29.0847 22.8809 29.3713 22.4592 29.7311 22.105C30.0909 21.7507 30.517 21.4708 30.985 21.2812C31.453 21.0916 31.9538 20.9961 32.4587 21.0001Z" stroke="black" stroke-width="2"/>
<path d="M21.7913 1.00012H35.3713C36.3902 0.992126 37.3706 1.3889 38.0972 2.10328C38.8237 2.81766 39.237 3.79122 39.2463 4.81012V17.1851C39.2423 17.6901 39.139 18.1893 38.9421 18.6543C38.7453 19.1193 38.4587 19.5409 38.0989 19.8952C37.7391 20.2494 37.313 20.5294 36.845 20.7189C36.377 20.9085 35.8762 21.0041 35.3713 21.0001H21.7913C20.7724 21.0081 19.7919 20.6113 19.0654 19.897C18.3388 19.1826 17.9255 18.209 17.9163 17.1901V4.81512C17.9202 4.31018 18.0235 3.81096 18.2204 3.34597C18.4173 2.88097 18.7038 2.4593 19.0636 2.10505C19.4234 1.75079 19.8495 1.47087 20.3175 1.28129C20.7856 1.09171 21.2863 0.996163 21.7913 1.00012Z" stroke="black" stroke-width="2"/>
<path d="M14.5823 24.9999V29.0002L17.9576 26.6863L21.2522 29.0002V24.9999" stroke="black" stroke-width="2" stroke-linecap="round" stroke-linejoin="round"/>
<path d="M35.9161 24.9999V29.0002L39.2913 26.6863L42.586 29.0002V24.9999" stroke="black" stroke-width="2" stroke-linecap="round" stroke-linejoin="round"/>
<path d="M25.2498 5V9.00024L28.625 6.6864L31.9197 9.00024V5" stroke="black" stroke-width="2" stroke-linecap="round" stroke-linejoin="round"/>
<path d="M53.5 41H3.5C2.11929 41 1 42.1193 1 43.5C1 44.8807 2.11929 46 3.5 46H53.5C54.8807 46 56 44.8807 56 43.5C56 42.1193 54.8807 41 53.5 41Z" stroke="black" stroke-width="2"/>
<path d="M7.25003 46H12.25V48.5C12.25 49.163 11.9866 49.7989 11.5178 50.2678C11.049 50.7366 10.4131 51 9.75003 51C9.08699 51 8.4511 50.7366 7.98226 50.2678C7.51342 49.7989 7.25003 49.163 7.25003 48.5V46Z" stroke="black" stroke-width="2"/>
<path d="M26 46H31V48.5C31 49.163 30.7366 49.7989 30.2677 50.2678C29.7989 50.7366 29.163 51 28.5 51C27.8369 51 27.201 50.7366 26.7322 50.2678C26.2634 49.7989 26 49.163 26 48.5V46Z" stroke="black" stroke-width="2"/>
<path d="M44.75 46H49.75V48.5C49.75 49.163 49.4866 49.7989 49.0178 50.2678C48.5489 50.7366 47.913 51 47.25 51C46.587 51 45.9511 50.7366 45.4822 50.2678C45.0134 49.7989 44.75 49.163 44.75 48.5V46Z" stroke="black" stroke-width="2"/>
</svg>
