<svg width="46" height="42" viewBox="0 0 46 42" fill="none" xmlns="http://www.w3.org/2000/svg">
<path d="M9.00037 1.00031H36.9996C39.1024 0.98193 41.1267 1.77429 42.627 3.2031C44.1274 4.63191 44.9809 6.58012 45 8.61919V33.3808C44.9809 35.4199 44.1274 37.3681 42.627 38.7969C41.1267 40.2257 39.1024 41.0181 36.9996 40.9997H9.00037C6.89757 41.0181 4.87335 40.2257 3.373 38.7969C1.87265 37.3681 1.01906 35.4199 1 33.3808L1 8.61919C1.01906 6.58012 1.87265 4.63191 3.373 3.2031C4.87335 1.77429 6.89757 0.98193 9.00037 1.00031Z" stroke="black" stroke-width="2"/>
<path d="M16.124 9.00012V17L23.0789 12.3731L29.8746 17V9.00012" stroke="black" stroke-width="2" stroke-linecap="round" stroke-linejoin="round"/>
</svg>
