<svg width="65" height="32" viewBox="0 0 65 32" fill="none" xmlns="http://www.w3.org/2000/svg">
<path d="M5.21683 0.121948H0.42471V17.3407H5.21683V15.8495C4.17537 14.6961 3.46486 13.2613 3.23608 11.6491C2.89694 9.25927 3.68308 6.94936 5.21683 5.18122V0.121948Z" fill="#FFEAD1"/>
<path fill-rule="evenodd" clip-rule="evenodd" d="M17.097 5.0335C16.6276 4.66508 16.0974 4.37613 15.5065 4.16664C14.4072 3.77693 12.9738 3.70749 11.2062 3.95832C9.02771 4.26746 7.40298 5.10699 6.33199 6.47691C5.26875 7.84574 4.8741 9.49534 5.14803 11.4257C5.34056 12.7824 5.81456 13.9213 6.57003 14.8422C7.33215 15.7543 8.21525 16.3763 9.21932 16.7083C10.2223 17.0326 11.5417 17.0787 13.1775 16.8466C14.8667 16.6069 16.1732 16.2021 17.097 15.6322V12.5105L14.879 12.6191C14.6372 13.0331 14.3989 13.3318 14.1639 13.5154C13.7783 13.8074 13.3529 13.9864 12.8877 14.0524C12.1512 14.1569 11.5163 13.9742 10.983 13.5042C10.6046 13.1782 10.3189 12.6415 10.1258 11.8938L17.097 10.9045V5.0335ZM13.4556 7.10312C13.9149 7.4413 14.2559 8.06119 14.4788 8.96279L9.8156 9.62453C9.78861 8.87703 9.89213 8.29687 10.1262 7.88404C10.4911 7.22328 11.0496 6.83954 11.8016 6.73283C12.4528 6.64042 13.0042 6.76385 13.4556 7.10312Z" fill="#FFEAD1"/>
<path d="M38.7461 4.77287C38.0264 4.17105 37.0853 3.87014 35.923 3.87014C35.0147 3.87014 34.2513 4.01891 33.6327 4.31646C33.0141 4.60618 32.3289 5.15821 31.5772 5.97256C31.2092 5.27567 30.7355 4.75104 30.156 4.39868C29.5766 4.04632 28.7897 3.87014 27.7952 3.87014C26.8712 3.87014 26.0804 4.03066 25.4226 4.3517C24.7727 4.67274 24.1267 5.21302 23.4847 5.97256V4.15202H19.0214V16.6256H23.8135V10.2596C23.8135 9.31216 23.9897 8.63093 24.3421 8.21593C24.6944 7.80092 25.1447 7.59342 25.6928 7.59342C26.0295 7.59342 26.3231 7.6913 26.5737 7.88706C26.8243 8.07498 27.0004 8.32555 27.1022 8.63876C27.1649 8.83452 27.1962 9.20646 27.1962 9.75457V16.6256H31.9883V10.1892C31.9883 9.28867 32.1606 8.63485 32.5051 8.22767C32.8496 7.8205 33.3038 7.61691 33.8676 7.61691C34.3452 7.61691 34.7446 7.83225 35.0656 8.26291C35.2849 8.53697 35.3945 8.95589 35.3945 9.51967V16.6256H38.7461V4.77287Z" fill="#FFEAD1"/>
<path d="M49.8112 10.4241C49.8112 8.52131 50.4533 6.95526 51.7375 5.72591C53.0216 4.48873 54.756 3.87014 56.9407 3.87014C59.4385 3.87014 61.3256 4.59443 62.602 6.04303C63.6277 7.20974 64.1406 8.64659 64.1406 10.3536C64.1406 12.272 63.5024 13.8459 62.2261 15.0752C60.9576 16.2968 59.1997 16.9075 56.9524 16.9075C54.9479 16.9075 53.327 16.3985 52.0898 15.3806C50.5708 14.1199 49.8112 12.4678 49.8112 10.4241ZM54.6034 10.4123C54.6034 11.5242 54.8265 12.3464 55.2728 12.8788C55.727 13.4113 56.2947 13.6775 56.9759 13.6775C57.665 13.6775 58.2288 13.4152 58.6673 12.8906C59.1136 12.366 59.3367 11.5242 59.3367 10.3653C59.3367 9.28476 59.1136 8.48216 58.6673 7.95753C58.2209 7.42507 57.6689 7.15884 57.0112 7.15884C56.3143 7.15884 55.7387 7.42899 55.2846 7.96928C54.8304 8.50173 54.6034 9.31608 54.6034 10.4123Z" fill="#FFEAD1"/>
<path d="M48.2975 7.682C48.0552 7.61512 47.8462 7.58168 47.6708 7.58168C47.0443 7.58168 46.5589 7.84008 46.2143 8.35687C45.721 9.08509 45.4744 10.4476 45.4744 12.4443V16.6256H40.6705V4.15202H45.1455V6.19572C45.5762 5.3109 46.0186 4.70406 46.4727 4.37519C46.9347 4.03849 47.5024 3.87014 48.1758 3.87014C48.8286 3.87014 49.5384 4.05824 50.3054 4.43444C49.3535 5.37553 48.6865 6.46799 48.2975 7.682Z" fill="#FFEAD1"/>
<path fill-rule="evenodd" clip-rule="evenodd" d="M18.2998 26.9625C19.2297 26.9625 19.9836 26.2086 19.9836 25.2787C19.9836 24.3487 19.2297 23.5949 18.2998 23.5949C17.3698 23.5949 16.616 24.3487 16.616 25.2787C16.616 26.2086 17.3698 26.9625 18.2998 26.9625ZM18.2998 31.7734C21.8867 31.7734 24.7945 28.8656 24.7945 25.2787C24.7945 21.6917 21.8867 18.784 18.2998 18.784C14.7128 18.784 11.805 21.6917 11.805 25.2787C11.805 28.8656 14.7128 31.7734 18.2998 31.7734Z" fill="#FFEAD1"/>
<path fill-rule="evenodd" clip-rule="evenodd" d="M49.5707 26.9625C50.5006 26.9625 51.2545 26.2086 51.2545 25.2787C51.2545 24.3487 50.5006 23.5949 49.5707 23.5949C48.6407 23.5949 47.8869 24.3487 47.8869 25.2787C47.8869 26.2086 48.6407 26.9625 49.5707 26.9625ZM49.5707 31.7734C53.1576 31.7734 56.0654 28.8656 56.0654 25.2787C56.0654 21.6917 53.1576 18.784 49.5707 18.784C45.9837 18.784 43.076 21.6917 43.076 25.2787C43.076 28.8656 45.9837 31.7734 49.5707 31.7734Z" fill="#FFEAD1"/>
<path d="M26.6884 24.557H41.1821C41.3378 22.7226 42.0817 21.0559 43.2245 19.7461H24.646C25.7887 21.0559 26.5326 22.7226 26.6884 24.557Z" fill="#FFEAD1"/>
<path d="M14.8962 19.7461H21.7033C23.3647 20.7704 24.5299 22.522 24.7549 24.557H19.8216C19.5513 23.9882 18.9715 23.5949 18.2998 23.5949C17.6281 23.5949 17.0482 23.9882 16.778 24.557H11.8447C12.0696 22.522 13.2348 20.7704 14.8962 19.7461Z" fill="#FFEAD1"/>
<path d="M11.9536 19.7461H0.258865V24.557H9.91118C10.0669 22.7226 10.8108 21.0559 11.9536 19.7461Z" fill="#FFEAD1"/>
<path d="M46.1671 19.7461H52.9743C54.6356 20.7704 55.8008 22.522 56.0258 24.557H51.0925C50.8222 23.9882 50.2424 23.5949 49.5707 23.5949C48.899 23.5949 48.3192 23.9882 48.0489 24.557H43.1156C43.3406 22.522 44.5057 20.7704 46.1671 19.7461Z" fill="#FFEAD1"/>
<path d="M57.9593 24.557C57.8036 22.7226 57.0596 21.0559 55.9169 19.7461H64.244V24.557H57.9593Z" fill="#FFEAD1"/>
</svg>
