<svg width="338" height="180" viewBox="0 0 338 180" fill="none" xmlns="http://www.w3.org/2000/svg">
<rect width="338" height="180" fill="#8251C6"/>
<path d="M110.744 98.1112H116.71V82.0462H124.599V76.525H110.744V98.1112ZM98.4011 93.2987C95.4848 93.2987 93.6667 91.421 93.4995 88.3655H108.299C108.299 88.3655 108.391 87.256 108.391 86.1132C108.391 79.6382 104.526 76 98.4645 76C92.0616 76 87.6053 80.655 87.6053 87.2857C87.6053 94.0075 91.9982 98.6327 98.4011 98.6327C104.339 98.6327 108.329 95.2062 108.452 90.1837H102.52C102.175 92.1595 100.721 93.2987 98.4011 93.2987ZM98.4627 80.9963C100.856 80.9963 102.282 82.0253 102.676 84.204H93.8181C94.4974 82.1635 96.1677 80.9963 98.4627 80.9963ZM260.659 76.525V82.0462H266.845V98.1112H272.815V82.0462H279V76.525H260.659ZM77.1245 76.525L73.0166 89.7515L69.0214 76.5267H62.432L59 98.1112H64.4736L66.5627 84.6835L70.5984 98.1112H75.2994L79.4794 84.4437L81.4858 98.1112H87.0526L83.6224 76.525H77.1245ZM135.549 76.0018C129.178 76.0018 125.558 79.1167 125.715 84.4192H131.899C131.929 82.1687 133.078 81.0925 135.549 81.0925C137.311 81.0925 138.425 81.8327 138.425 82.9423C138.425 83.651 138.147 83.9292 137.065 84.2372L132.084 85.5935C127.321 86.8885 125.187 88.8625 125.187 92.163C125.187 96.0165 128.003 98.6065 132.147 98.6065C135.363 98.6065 137.466 97.3115 138.519 94.8755V98.113H144.239V83.7717C144.239 78.5603 140.93 76.0018 135.549 76.0018ZM133.415 93.6068C131.901 93.6068 131.156 92.8682 131.156 91.7902C131.156 90.7717 131.681 90.126 133.316 89.6605L138.482 88.2133V88.6122C138.487 91.3877 136.296 93.6085 133.413 93.6085L133.415 93.6068ZM239.162 76.525H232.575L227.934 84.5417H225.554V76.5267H219.582V98.1112H225.552V89.8477H227.897L232.883 98.1112H239.625L233.038 87.1037L239.162 76.525ZM185.841 76.0018C179.47 76.0018 175.85 79.1167 176.007 84.4192H182.191C182.223 82.1687 183.37 81.0925 185.841 81.0925C187.608 81.0925 188.717 81.8327 188.717 82.9423C188.717 83.651 188.439 83.9292 187.357 84.2372L182.376 85.5935C177.613 86.8885 175.48 88.8625 175.48 92.163C175.48 96.0165 178.296 98.6065 182.439 98.6065C185.657 98.6065 187.76 97.343 188.811 94.8755V98.113H194.531V83.7717C194.531 78.5603 191.222 76.0018 185.841 76.0018ZM183.682 93.6068C182.196 93.6068 181.454 92.8682 181.454 91.7902C181.454 90.7717 181.98 90.154 183.619 89.692L188.784 88.2448V88.6122C188.779 91.5435 186.584 93.6085 183.677 93.6085H183.682V93.6068ZM209.128 76.0018C206.272 76.0018 204.13 77.4507 203.285 79.7643V76.525H197.315V104H203.285V94.9385C204.168 97.2292 206.298 98.6012 209.128 98.6012C214.079 98.6012 217.388 94.7775 217.388 87.3155C217.388 79.8535 214.079 76 209.13 76L209.128 76.0018ZM207.461 93.0852C204.8 93.0852 203.192 91.2337 203.192 87.3173C203.192 83.4323 204.832 81.5212 207.521 81.5212C210.059 81.5212 211.574 83.4025 211.574 87.3173C211.574 91.3877 210.121 93.0852 207.461 93.0852ZM164.192 76.525L160.084 89.7498L156.089 76.5267H149.499L146.067 98.1112H151.541L153.63 84.6835L157.666 98.1112H162.365L166.547 84.4437L168.553 98.1112H174.118L170.686 76.525H164.192Z" fill="#F7DCC1"/>
<path d="M249.337 93.2987C246.449 93.2987 244.604 91.421 244.435 88.3655H259.233C259.233 88.3655 259.327 87.256 259.327 86.1132C259.327 79.6382 255.462 76 249.399 76C242.996 76 238.543 80.655 238.543 87.2857C238.543 94.0075 242.934 98.6327 249.337 98.6327C255.275 98.6327 259.265 95.2062 259.388 90.1837H253.45C253.11 92.1595 251.657 93.2987 249.337 93.2987ZM249.399 80.9963C251.79 80.9963 253.218 82.0253 253.612 84.204H244.754C245.432 82.1635 247.104 80.9963 249.399 80.9963Z" fill="#F7DCC1"/>
</svg>
