<svg xmlns="http://www.w3.org/2000/svg" width="18" height="16" viewBox="0 0 18 16">
  <path id="Path_4046" data-name="Path 4046" d="M39.585,27.872H23.215a.817.817,0,0,1,.163-.52l1.4-1.691a.7.7,0,0,1,.554-.26h12.1a.8.8,0,0,1,.554.26l1.4,1.691A.7.7,0,0,1,39.585,27.872Zm.815,1.366V40.685a.723.723,0,0,1-.717.715H23.117a.723.723,0,0,1-.717-.715V29.237a.723.723,0,0,1,.717-.715H39.683A.723.723,0,0,1,40.4,29.237Zm-5.12,2.211a.806.806,0,0,0-.815-.813h-6.13a.813.813,0,1,0,0,1.626h6.13A.806.806,0,0,0,35.28,31.449Z" transform="translate(-22.4 -25.4)" fill="#bf3385"/>
</svg>
