<svg width="338" height="180" viewBox="0 0 338 180" fill="none" xmlns="http://www.w3.org/2000/svg">
<rect width="338" height="180" fill="#005CFF"/>
<path d="M150.889 101.714H131.913L156.139 69.6652C156.667 68.9615 156.52 67.9352 155.816 67.4075C155.552 67.2022 155.201 67.0849 154.849 67.0849H119.8C116.72 67.0849 114.198 69.6066 114.198 72.6854C114.198 75.7642 116.72 78.2859 119.8 78.2859H135.55L111.236 110.364C110.678 111.068 110.825 112.065 111.529 112.622C111.822 112.856 112.174 112.974 112.526 112.944H150.86C153.939 112.798 156.315 110.159 156.168 107.051C156.022 104.177 153.734 101.89 150.86 101.743V101.714H150.889ZM273.369 67.0849C270.289 67.0849 267.767 69.6066 267.767 72.6854V91.4808L237.499 67.4661C236.824 66.909 235.798 66.9969 235.241 67.7007C235.006 67.9939 234.889 68.3458 234.889 68.7269V107.344C234.889 110.423 237.411 112.944 240.49 112.944C243.57 112.944 246.092 110.452 246.092 107.344V88.5486L276.36 112.593C277.064 113.15 278.091 113.032 278.648 112.329C278.883 112.035 279 111.684 279 111.332V72.6854C278.971 69.5773 276.478 67.0849 273.369 67.0849ZM193.27 102.77C180.453 102.77 170.892 96.0257 170.892 89.9853C170.892 83.945 180.482 77.201 193.27 77.201C206.087 77.201 215.648 83.945 215.648 89.9853C215.648 96.0257 206.116 102.77 193.27 102.77ZM193.27 66C174.734 66 159.688 76.7318 159.688 89.9853C159.688 103.239 174.734 113.971 193.27 113.971C211.806 113.971 226.852 103.239 226.852 89.9853C226.852 76.7318 211.806 66 193.27 66ZM83.0208 102.799C75.9524 102.799 70.2038 97.0812 70.2038 90.0147C70.2038 82.9481 75.9231 77.201 82.9915 77.201C90.0599 77.201 95.8084 82.9188 95.8084 89.9853V90.0147C95.8084 97.0519 90.0892 102.77 83.0208 102.799ZM83.0208 66C69.7639 66 59.0293 76.7318 59 89.9853C59 103.239 69.7346 113.971 82.9915 114C96.2484 114 106.983 103.268 107.012 90.0147V89.9853C106.983 76.7318 96.2484 66 83.0208 66Z" fill="white"/>
</svg>
