<svg width="26" height="26" viewBox="0 0 26 26" fill="none" xmlns="http://www.w3.org/2000/svg">
<path d="M20 0H6C2.69 0 0 2.69 0 6V20C0 23.31 2.69 26 6 26H9H11C19.27 26 26 19.27 26 11V9V6C26 2.69 23.31 0 20 0ZM2 20V6C2 3.79 3.79 2 6 2H20C22.21 2 24 3.79 24 6V9C24 10.65 22.65 12 21 12H18C14.69 12 12 14.69 12 18V21C12 22.65 10.65 24 9 24H6C3.79 24 2 22.21 2 20ZM13.13 23.81C13.68 23.01 14 22.04 14 21V18C14 15.79 15.79 14 18 14H21C22.04 14 23.01 13.68 23.81 13.13C22.9 18.59 18.59 22.9 13.13 23.81Z" fill="black"/>
</svg>
