<svg width="22" height="26" viewBox="0 0 22 26" fill="none" xmlns="http://www.w3.org/2000/svg">
<path d="M10.5932 25.9142C8.78206 25.0833 7.04954 24.0896 5.41689 22.9453C1.77271 20.3572 0 17.819 0 15.1877V2.91595C0.000106542 2.77178 0.0314705 2.62936 0.0919159 2.49857C0.152361 2.36778 0.240441 2.25175 0.350044 2.15853C0.460013 2.0654 0.588446 1.99677 0.726838 1.95719C0.865229 1.91761 1.01042 1.90799 1.1528 1.92895C1.82874 2.02983 2.51103 2.08196 3.1944 2.08495C5.75549 2.08454 8.272 1.41251 10.4945 0.135479C10.6481 0.0467183 10.8223 0 10.9995 0C11.1768 0 11.3509 0.0467183 11.5045 0.135479C13.7272 1.41323 16.244 2.08594 18.8056 2.08691C19.4889 2.08247 20.1711 2.03034 20.8472 1.93091C20.9899 1.91104 21.1352 1.92174 21.2735 1.96231C21.412 2.00139 21.5404 2.06999 21.65 2.16344C21.7593 2.25644 21.8472 2.37215 21.9077 2.50259C21.9681 2.63302 21.9996 2.77505 22 2.91889V15.1877C22 17.819 20.2273 20.3572 16.5831 22.9453C14.9505 24.09 13.218 25.084 11.4068 25.9152C11.2784 25.9711 11.1399 26 11 26C10.8601 26 10.7216 25.9701 10.5932 25.9142ZM2.00542 15.1877C2.00542 17.0224 3.67351 19.2603 6.58338 21.3265C7.98117 22.3062 9.45707 23.1686 10.9961 23.9049C12.5348 23.1686 14.0104 22.3063 15.4078 21.3265C18.3167 19.2603 19.9868 17.0224 19.9868 15.1877V4.02951C19.581 4.05993 19.1869 4.07562 18.8134 4.07759C16.0894 4.07568 13.4068 3.40755 10.998 2.13106C8.59004 3.40679 5.90863 4.07489 3.1856 4.07759C2.78667 4.07759 2.39262 4.05894 2.01227 4.02951L2.00542 15.1877ZM9.66631 16.6496C9.53967 16.5953 9.4255 16.5155 9.33093 16.4151L5.88427 12.6868C5.79554 12.5902 5.72679 12.4769 5.68197 12.3535C5.63716 12.2301 5.61719 12.0989 5.6232 11.9677C5.62956 11.837 5.6619 11.7089 5.71832 11.591C5.77474 11.4731 5.8541 11.3676 5.95173 11.2809C6.14973 11.1035 6.40919 11.0112 6.67431 11.0239C6.93918 11.035 7.18884 11.1511 7.36853 11.3466L10.0838 14.2841L15.2602 8.84971C15.3507 8.75461 15.459 8.67827 15.5789 8.62504C15.6161 8.60934 15.6532 8.59462 15.6904 8.58285L15.9583 8.52889H15.9896C16.2433 8.52887 16.4877 8.62487 16.674 8.79771C16.7705 8.88671 16.8483 8.99411 16.9028 9.11363C16.9579 9.23287 16.9885 9.36199 16.9928 9.49332C16.9967 9.62462 16.9744 9.75536 16.9273 9.87792C16.8801 10.0008 16.8094 10.1131 16.719 10.2086L10.8005 16.421C10.7067 16.5211 10.5932 16.6006 10.4671 16.6545C10.3403 16.7091 10.2037 16.7373 10.0657 16.7373C9.92772 16.7373 9.79116 16.7091 9.66436 16.6545L9.66631 16.6496Z" fill="black"/>
</svg>
