<svg width="26" height="26" viewBox="0 0 26 26" fill="none" xmlns="http://www.w3.org/2000/svg">
<path d="M4.71788 1.00016L4.71788 1.0002H4.72749H21.2725V1.00025L21.2821 1.00016C22.2379 0.990966 23.1717 1.38636 23.8744 2.12251C24.5784 2.85994 24.9898 3.87817 25 4.95693V21.0431C24.9898 22.1218 24.5784 23.1401 23.8744 23.8775C23.1717 24.6136 22.2379 25.009 21.2821 24.9998V24.9998H21.2725H4.72749V24.9998L4.71788 24.9998C3.76213 25.009 2.8283 24.6136 2.12556 23.8775C1.4216 23.1401 1.01017 22.1218 1 21.0431V4.95694C1.01017 3.87818 1.4216 2.85994 2.12556 2.12251C2.8283 1.38636 3.76213 0.990966 4.71788 1.00016Z" stroke="black" stroke-width="2"/>
<path d="M8.5 6V11.1999L13.0206 8.19245L17.4379 11.1999V6" stroke="black" stroke-width="2" stroke-linecap="round" stroke-linejoin="round"/>
</svg>
