<svg width="338" height="180" viewBox="0 0 338 180" fill="none" xmlns="http://www.w3.org/2000/svg">
<rect width="338" height="180" fill="#FF5226"/>
<path d="M83.0095 109C72.584 109 64.1113 100.515 64.1113 90.0342C64.1113 79.5525 72.584 71 83.0095 71C93.4337 71 101.908 79.5525 101.908 90.0342C101.908 100.515 93.4337 109 83.0095 109Z" fill="#F7D931"/>
<path d="M80.0828 73.5713L59 106.644H68.6645L80.8438 87.5806L80.5464 87.4451L77.17 101.087L84.3185 102.354L91.6661 93.0691L91.268 92.8702L88.7861 103.416L104.362 100.432L101.185 95.1705L95.5705 96.4625L96.2332 97.2288L98.8474 86.2152L92.7572 82.1213L84.7822 92.204L85.179 92.4041L88.4547 79.1928L80.0828 73.5713Z" fill="#FF5226"/>
<path d="M80.0828 73.5713L59 106.644H68.6645L80.8438 87.5806L80.5464 87.4451L77.17 101.087L84.3185 102.354L91.6661 93.0691L91.268 92.8702L88.7861 103.416L95.0476 102.217L98.8474 86.2152L92.7572 82.1213L84.7822 92.204L85.179 92.4041L88.4547 79.1928L80.0828 73.5713Z" fill="#FF5226"/>
<path d="M109.152 101.97L120.903 78.0682H129.852L131.681 92.6209L140.747 78.0669H149.619V101.97H140.943V89.1388L132.887 101.97H124.21L122.538 89.021L116.156 101.97H109.152ZM176.273 97.2366C176.273 98.046 176.287 98.8415 176.312 99.623C176.339 100.406 176.39 101.175 176.469 101.931H168.413C168.222 101.555 168.066 101.163 167.947 100.758C167.788 100.222 167.684 99.6719 167.636 99.1151C166.805 100.106 165.755 100.926 164.483 101.579C163.239 102.206 161.461 102.519 159.153 102.519C156.818 102.519 154.95 101.97 153.549 100.876C152.174 99.7801 151.488 98.3196 151.488 96.4931C151.488 94.7983 151.966 93.4949 152.927 92.5816C153.913 91.643 155.442 90.9907 157.519 90.6259C159.594 90.2332 162.252 90.0382 165.495 90.0382H167.518V89.6075C167.518 88.774 167.168 88.1344 166.468 87.691C165.767 87.2477 164.457 87.026 162.538 87.026C160.645 87.026 158.881 87.2743 157.245 87.7696C155.638 88.2382 154.327 88.7082 153.316 89.1781V83.9354C154.457 83.5174 155.988 83.1006 157.908 82.6839C159.853 82.2406 162.071 82.0189 164.561 82.0189C167.077 82.0189 169.204 82.2532 170.943 82.7232C172.681 83.1665 174.004 83.9354 174.911 85.031C175.82 86.1001 176.273 87.5872 176.273 89.491V97.2366ZM178.919 82.6066H186.975L187.441 85.9304C188.427 84.627 189.607 83.6757 190.982 83.0753C192.357 82.4749 193.939 82.176 195.73 82.176C197.753 82.176 199.568 82.5408 201.177 83.2704C202.751 83.9706 204.079 85.1293 204.99 86.5966C205.925 88.0824 206.391 89.9609 206.391 92.2295C206.391 94.4981 205.925 96.3892 204.99 97.9016C204.083 99.3887 202.811 100.511 201.177 101.266C199.542 102.023 197.675 102.401 195.573 102.401C194.069 102.41 192.577 102.131 191.176 101.579C189.827 101.006 188.66 100.106 187.675 98.8808V107.018H178.919V82.6054V82.6066ZM231.761 92.2295C231.761 90.2991 232.28 88.5777 233.318 87.0653C234.381 85.5529 235.886 84.3673 237.831 83.506C239.803 82.6193 242.125 82.176 244.797 82.176C247.572 82.176 249.894 82.6573 251.761 83.6225C253.655 84.5877 254.978 85.957 255.73 87.7303C256.509 89.5036 256.612 91.6038 256.041 94.0294H240.672C240.983 95.1504 241.671 95.9978 242.734 96.5716C243.824 97.1201 245.432 97.3937 247.559 97.3937C249.038 97.3937 250.412 97.2632 251.683 97.001C252.879 96.7354 254.061 96.4094 255.225 96.0244V100.679C254.109 101.201 252.864 101.618 251.489 101.931C250.14 102.244 248.364 102.401 246.159 102.401C241.307 102.401 237.689 101.501 235.302 99.7016C232.941 97.8763 231.761 95.386 231.761 92.2295ZM256.781 82.6054H279V87.6138H272.073V101.931H263.318V87.6138H256.781V82.6054ZM208.064 82.6054H216.819V91.3682L225.107 82.6054H232.657L224.951 90.6639L234.252 101.931H223.667L216.819 93.4024V101.931H208.064V82.6054ZM244.836 86.5574C243.642 86.5574 242.695 86.9095 241.995 87.6138C241.294 88.2914 240.841 89.1654 240.633 90.2345H248.337C248.312 89.1654 248.026 88.2914 247.482 87.6125C246.936 86.9095 246.054 86.5574 244.836 86.5574ZM197.442 92.2295C197.442 90.6639 197.013 89.4251 196.157 88.5131C195.328 87.5745 194.133 87.1046 192.577 87.1046C191.151 87.1046 189.957 87.5479 188.998 88.4346C188.038 89.2959 187.558 90.56 187.558 92.2295C187.558 93.899 188.024 95.1897 188.959 96.103C189.919 96.9896 191.125 97.433 192.577 97.433C194.186 97.433 195.392 96.963 196.196 96.0244C197.026 95.0858 197.442 93.8204 197.442 92.2295ZM167.518 93.5975H165.534C163.641 93.5975 162.279 93.7558 161.448 94.0687C160.645 94.3816 160.243 94.9807 160.243 95.8674C160.243 96.6236 160.502 97.1847 161.02 97.5495C161.565 97.889 162.213 98.0587 162.966 98.0587C164.108 98.0587 165.041 97.8497 165.767 97.433C166.519 96.9896 167.104 96.4804 167.518 95.9066V93.5975Z" fill="white"/>
</svg>
