<svg width="26" height="26" viewBox="0 0 26 26" fill="none" xmlns="http://www.w3.org/2000/svg">
<path d="M13 0C5.82028 0 0 5.82028 0 13C0 20.1797 5.82028 26 13 26C20.1797 26 26 20.1797 26 13C26 5.82028 20.1797 0 13 0ZM19.0257 8.84105C18.8301 10.8967 17.9836 15.8851 17.5527 18.1874C17.3705 19.1616 17.0117 19.4883 16.6643 19.5202C15.9095 19.5897 15.3361 19.0213 14.6049 18.542C13.4608 17.792 12.8144 17.3251 11.7037 16.5932C10.4202 15.7474 11.2523 15.2827 11.9837 14.5226C12.1752 14.3238 15.5015 11.2983 15.5658 11.0238C15.5738 10.9895 15.5815 10.8613 15.5053 10.794C15.4291 10.7267 15.3171 10.7495 15.2362 10.7678C15.1214 10.7939 13.2936 12.002 9.75267 14.3922C9.2339 14.7484 8.76397 14.922 8.34291 14.9129C7.87873 14.9029 6.98588 14.6505 6.32209 14.4347C5.50796 14.1701 4.8609 14.0302 4.91725 13.5808C4.9466 13.3466 5.26898 13.1072 5.88439 12.8626C9.67417 11.2115 12.2013 10.1229 13.4657 9.59688C17.0759 8.09523 17.8261 7.83439 18.3151 7.82569C18.4226 7.8239 18.6631 7.85053 18.8188 7.97692C18.9224 8.06695 18.9884 8.19258 19.0039 8.32896C19.0302 8.49831 19.0376 8.67007 19.0257 8.84105Z" fill="#E0E6ED"/>
</svg>
