<svg width="19" height="19" viewBox="0 0 19 19" fill="none" xmlns="http://www.w3.org/2000/svg">
<path d="M4.10647 5.30044C4.10647 3.89521 4.6791 2.54701 5.69834 1.55305C6.71849 0.558347 8.1002 0 9.54229 0C10.9844 0 12.3662 0.558347 13.3862 1.55305C14.4055 2.54687 14.9781 3.895 14.9781 5.30044C14.9781 6.70657 14.4055 8.05479 13.3862 9.04852C12.3661 10.0423 10.9844 10.6007 9.54229 10.6007C8.1002 10.6007 6.71842 10.0423 5.69834 9.04852C4.6791 8.0547 4.10647 6.70657 4.10647 5.30044ZM18.1639 15.4078L17.404 14.1156C16.9876 13.4184 16.477 12.779 15.8843 12.2162C15.1153 11.461 13.9344 11.2776 12.9618 11.7602C10.7918 12.852 8.21439 12.852 6.04539 11.7602C5.07273 11.2776 3.89186 11.461 3.12286 12.2162C2.5283 12.7781 2.01685 13.4166 1.60314 14.1156L0.843279 15.398C0.385726 16.1487 0.385726 17.0819 0.842365 17.8327C1.29992 18.5834 2.14016 19.0304 3.03518 18.9984H16.0496C16.9273 19.0002 17.7383 18.5433 18.1757 17.8006C18.6123 17.0589 18.6077 16.1451 18.1639 15.4078Z" fill="black"/>
</svg>
