<svg width="26" height="26" viewBox="0 0 26 26" fill="none" xmlns="http://www.w3.org/2000/svg">
<path fill-rule="evenodd" clip-rule="evenodd" d="M1.82765 1.82765C0 3.65531 0 6.59685 0 12.48V13.52C0 19.4032 0 22.3447 1.82765 24.1724C3.65531 26 6.59684 26 12.48 26H13.52C19.4031 26 22.3447 26 24.1724 24.1724C26 22.3447 26 19.4032 26 13.52V12.48C26 6.59686 26 3.65531 24.1724 1.82765C22.3447 0 19.4032 0 13.52 0H12.48C6.59685 0 3.65531 0 1.82765 1.82765ZM4.38757 7.90845C4.52841 14.6684 7.90835 18.7309 13.8342 18.7309H14.1701V14.8634C16.3476 15.0801 17.9941 16.6726 18.655 18.7309H21.7317C20.8867 15.6543 18.6658 13.9534 17.2791 13.3034C18.6658 12.5018 20.6158 10.5518 21.0816 7.90845H18.2866C17.6799 10.0534 15.8818 12.0034 14.1701 12.1876V7.90845H11.375V15.4051C9.64169 14.9718 7.45341 12.8701 7.35591 7.90845H4.38757Z" fill="#E0E6ED"/>
</svg>
