<svg width="340" height="180" viewBox="0 0 340 180" fill="none" xmlns="http://www.w3.org/2000/svg">
<rect width="340" height="180" fill="url(#paint0_linear_7_171)"/>
<path d="M265.475 90.3585C265.475 88.9757 267.356 87.8601 269.821 87.8601C272.392 87.8601 275.017 89.0832 276.792 91.0766L280 87.1431C276.951 84.4306 273.85 83.0222 269.981 83.0222C265.156 83.0222 260.174 85.2552 260.174 90.3585C260.174 96.6326 265.58 97.0844 269.981 97.4572C272.446 97.6416 274.619 97.8291 274.619 99.4506C274.619 101.204 272.128 102.001 269.927 102.001C267.383 102.001 264.626 100.912 262.612 98.4928L259.193 102.135C261.922 105.485 265.872 106.947 269.741 106.947C274.593 106.947 279.92 104.634 279.92 99.3441C279.92 93.3619 274.46 92.778 270.272 92.3529C267.647 92.0866 265.475 91.8479 265.475 90.3585ZM241.089 91.8479C241.964 89.6415 243.846 88.3651 246.628 88.3651C249.438 88.3651 251.108 89.7204 251.824 91.8479H241.089ZM246.894 83.0222C240.268 83.0222 234.939 88.2053 234.939 95.0111C234.939 101.417 239.657 106.947 246.602 106.947C250.79 106.947 254.183 104.926 256.595 101.471L252.937 98.3607C251.638 100.354 249.306 101.524 246.522 101.524C243.686 101.524 240.744 99.3973 240.506 96.2598H257.814V94.3996C257.761 87.8335 253.308 83.0222 246.894 83.0222ZM179.091 83.0222C172.465 83.0222 167.137 88.2053 167.137 95.0111C167.137 101.417 171.855 106.947 178.8 106.947C182.988 106.947 186.381 104.926 188.793 101.471L185.135 98.3607C183.836 100.354 181.504 101.524 178.72 101.524C175.884 101.524 172.942 99.3973 172.704 96.2598H190.012V94.3996C189.985 87.8335 185.506 83.0222 179.091 83.0222ZM226.935 106.122H232.236V83.8457H226.935V106.123V106.122ZM229.585 73C227.439 73 225.609 74.808 225.609 77.0666C225.609 79.2997 227.386 80.9489 229.691 80.9489C231.945 80.9489 233.588 79.354 233.588 77.1476C233.561 74.8879 231.759 73 229.585 73ZM152.744 82.9955C150.253 82.9955 148 83.7402 146.091 85.0422V73.2663H140.79V95.0111C140.79 101.629 146.171 106.947 152.718 106.947C159.318 106.947 164.725 101.657 164.725 94.9578C164.698 88.2852 159.397 82.9955 152.744 82.9955ZM125.179 83.3674C119.268 83.9789 114.443 89.0832 114.443 95.1709C114.443 101.604 119.931 107 126.345 107C132.732 107 138.246 101.604 138.246 95.1709C138.246 92.4328 137.265 89.9068 135.674 87.9134L123.906 73.293H117.041L125.179 83.3674ZM84.0941 96.5261L79.2428 83.8457H75.5341L70.6562 96.5261L65.7793 83.8457H60L68.5345 106.176H72.2453L77.3613 92.8846L82.5305 106.175H86.2403L94.7493 83.8457H88.9976L84.0941 96.5261ZM198.096 88.9234V83.8457H192.795V106.123H198.096V96.7135C198.096 92.1409 202.974 89.3495 207.824 89.3495V83.8468H207.293C203.185 83.8468 200.216 85.3362 198.096 88.9244V88.9234ZM214.928 88.9234V83.8457H209.627V106.123H214.928V96.7135C214.928 92.1409 219.805 89.3495 224.655 89.3495V83.8468H224.125C220.043 83.8468 217.075 85.3362 214.928 88.9244V88.9234ZM106.412 106.122H111.712V73.293H106.411V106.123L106.412 106.122ZM126.371 101.629C122.713 101.629 119.745 98.6793 119.745 95.0111C119.745 91.3163 122.713 88.3651 126.345 88.3651C130.029 88.3651 133.024 91.3153 133.024 95.0111C133.024 98.6793 130.029 101.629 126.371 101.629ZM152.718 101.629C151.847 101.631 150.984 101.46 150.179 101.127C149.374 100.794 148.643 100.304 148.027 99.6868C147.412 99.0694 146.924 98.3362 146.591 97.5292C146.259 96.7222 146.089 95.8574 146.091 94.9845C146.091 91.3429 148.927 88.3651 152.744 88.3651C156.562 88.3651 159.398 91.3429 159.398 94.9578C159.398 98.7325 156.376 101.629 152.718 101.629ZM97.2143 106.122H102.515V83.8457H97.2143V106.123V106.122ZM99.8121 73C97.665 73 95.8622 74.808 95.8622 77.0943C95.8622 79.4073 97.7447 80.9755 99.8121 80.9755C102.118 80.9755 103.867 79.061 103.867 76.9878C103.841 74.8879 102.011 73 99.8121 73ZM173.286 91.8479C174.188 89.6415 176.043 88.3651 178.8 88.3651C181.636 88.3651 183.359 89.7204 184.074 91.8479H173.286Z" fill="white"/>
<defs>
<linearGradient id="paint0_linear_7_171" x1="-2.5332e-06" y1="90" x2="340" y2="90" gradientUnits="userSpaceOnUse">
<stop stop-color="#E039C3"/>
<stop offset="1" stop-color="#781AED"/>
</linearGradient>
</defs>
</svg>
