<svg width="26" height="26" viewBox="0 0 26 26" fill="none" xmlns="http://www.w3.org/2000/svg">
<path d="M0.697298 25.1137C0.638822 25.3585 0.71156 25.6173 0.898394 25.7946C1.03674 25.9282 1.2193 26 1.40897 26C1.47172 26 1.53305 25.993 1.59152 25.9789L7.5319 24.4553C9.2519 25.2445 11.0875 25.6441 13.0013 25.6441C20.1681 25.6441 26 19.8928 26 12.822C26 5.75266 20.1655 0 12.9987 0C5.83193 0 0 5.75266 0 12.822C0 15.2643 0.693128 17.6264 2.01239 19.676L0.697298 25.1137ZM7.22222 7.11344L8.16351 6.23137C8.52149 5.89654 9.08768 5.91061 9.42713 6.26372L11.5479 8.46823C11.8874 8.82135 11.8731 9.37984 11.5151 9.71467L10.5881 10.5869C10.5881 10.5869 9.3615 11.3142 11.9316 13.7635L12.0371 13.8747C14.3847 16.5322 15.1848 15.3617 15.1848 15.3617L16.1118 14.4895C16.4698 14.1546 17.036 14.1687 17.3754 14.5218L19.4606 16.6869C19.8 17.04 19.7857 17.5985 19.4278 17.9334L18.4865 18.8154C17.7676 19.4893 16.7593 19.7988 15.7881 19.6005C14.4702 19.3346 12.4978 18.4117 9.85061 15.8146C9.90195 15.8723 9.9533 15.9257 10.0046 15.9876L9.68374 15.6556C9.73794 15.7133 9.79356 15.7639 9.84776 15.8174C7.35474 13.0797 6.52181 11.089 6.3207 9.77768C6.17808 8.80276 6.50338 7.78732 7.22222 7.11344Z" fill="#E0E6ED"/>
</svg>
